# xmcd
#
# Track frame offsets: 
#        150
#        13381
#        30782
#        43544
#        60834
#        74219
#        89445
#        102893
#        119613
#        130735
#
# Disc length: 1939 seconds
#
# Revision: 0
# Processed by: cddbd v1.5PL3 Copyright (c) Steve Scherf et al.
# Submitted via: ExactAudioCopy v0.95a3
#
DISCID=8307910a
DTITLE=Alan Jackson - Don't Rock The Jukebox
DYEAR=1991
DGENRE=Country
TTITLE0=Don't Rock The Jukebox
TTITLE1=That's All I Need To Know
TTITLE2=Dallas
TTITLE3=Midnight In Montgomery
TTITLE4=Love's Got A Hold On You
TTITLE5=Someday
TTITLE6=Just Playin' Possum
TTITLE7=From A Distance
TTITLE8=Walkin' The Floor Over Me
TTITLE9=Working Class Hero
EXTD=
EXTT0=
EXTT1=
EXTT2=
EXTT3=
EXTT4=
EXTT5=
EXTT6=
EXTT7=
EXTT8=
EXTT9=
PLAYORDER=
